<?xml version="1.0" encoding="utf-8"?>
<!-- Generator: Adobe Illustrator 27.5.0, SVG Export Plug-In . SVG Version: 6.00 Build 0)  -->
<svg version="1.1" id="Layer_1" xmlns="http://www.w3.org/2000/svg" xmlns:xlink="http://www.w3.org/1999/xlink" x="0px" y="0px"
	 viewBox="0 0 4000 9000" style="enable-background:new 0 0 4000 9000;" xml:space="preserve">
<g>
	<rect style="fill-rule:evenodd;clip-rule:evenodd;fill:#FFFFFF;" width="4000" height="9000"/>
	<g>
		<defs>
			<path id="SVGID_1_" d="M1354.165,9000c264.304-143.293,385.348-422.795,503.807-696.373
				c140.495-324.489,277.354-640.605,647.515-698.372c186.488-29.077,428.444-14.038,691.804,2.352
				c257.164,16.007,534.695,33.266,802.708,12.186v-30.513c-266.717,21.207-543.996,3.961-800.871-12.012
				c-265.073-16.511-508.611-31.664-698.386-2.045c-386.71,60.346-526.864,383.999-670.719,716.278
				c-116.535,269.16-235.595,544.148-491.341,682.282c-18.374,9.929-36.285,18.642-53.763,26.218H1354.165z M1463.504,9000
				c217.268-152.586,326.106-406.787,432.798-656.072c139.146-325.097,274.681-641.768,644.622-701.057
				c186.233-29.885,428.297-15.823,691.765-0.528c245.904,14.284,510.462,29.653,767.311,11.597v-30.521
				c-255.746,18.177-519.924,2.83-765.472-11.423c-265.12-15.4-508.659-29.545-698.447,0.908
				c-386.472,61.963-525.268,386.177-667.74,719.05c-111.094,259.494-224.516,524.407-460.366,668.046H1463.504z M1558.478,9000
				c181.438-155.479,279.698-387.674,376.189-615.77c137.815-325.672,272.035-642.892,641.717-703.752
				c186.186-30.619,428.249-17.591,691.77-3.373c234.573,12.64,486.129,26.198,731.847,10.79v-30.474
				c-244.494,15.469-495.837,1.95-730.182-10.676c-265.194-14.292-508.845-27.433-698.459,3.774
				c-386.205,63.57-523.651,388.375-664.739,721.836c-100.012,236.352-201.883,477.191-396.293,627.645H1558.478z M1644.172,9000
				c152.646-154.251,241.475-366.606,328.851-575.524c136.439-326.204,269.362-643.972,638.75-706.355
				c186.12-31.426,428.236-19.375,691.839-6.273c223.361,11.106,462.108,22.97,696.388,9.929v-30.439
				c-233.277,13.107-471.799,1.24-694.927-9.842c-265.246-13.215-508.944-25.322-698.312,6.646
				c-385.997,65.186-522.073,390.581-661.785,724.63c-90.291,215.894-182.138,435.478-344.652,587.229H1644.172z M1723.159,9000
				c129.114-150.181,209.303-344.137,288.29-535.235c135.081-326.792,266.656-645.089,635.797-709.013
				c186-32.213,428.167-21.167,691.791-9.169c212.135,9.673,438.156,19.982,660.964,8.987v-30.447
				c-221.913,11.032-447.726,0.747-659.615-8.913c-265.341-12.099-509.074-23.189-698.312,9.575
				c-385.703,66.78-520.464,392.737-658.78,727.362c-81.513,197.211-164.327,397.516-300.999,546.854H1723.159z M1797.086,9000
				c109.339-144.007,181.55-320.687,252.745-495.015c133.706-327.295,263.957-646.131,632.891-711.586
				c185.961-33.026,428.076-22.983,691.657-12.064c200.978,8.312,414.385,17.148,625.621,7.955v-30.46
				c-210.479,9.243-423.605,0.417-624.285-7.894c-265.467-10.993-509.347-21.083-698.325,12.465
				c-385.374,68.377-518.786,394.909-655.718,730.135c-73.435,179.784-147.938,362.13-263.296,506.465H1797.086z M1867.092,9000
				c92.57-136.21,157.265-296.44,221.165-454.726c132.37-327.93,261.298-647.332,629.89-714.321
				c185.679-33.733,427.929-24.712,691.657-14.891c189.774,7.074,390.641,14.551,590.197,6.889v-30.473
				c-198.942,7.709-399.554,0.245-589.034-6.802c-265.428-9.882-509.26-18.95-698.239,15.379
				c-385.128,69.981-517.156,397.042-652.687,732.819c-65.923,163.311-132.716,328.713-230.155,466.125H1867.092z M1933.945,9000
				c78.152-127.124,135.777-271.606,192.763-414.497c131.012-328.471,258.604-648.397,626.922-716.907
				c185.598-34.528,427.874-26.512,691.572-17.784c178.549,5.899,366.926,12.125,554.798,5.759v-30.42
				c-187.262,6.387-375.441,0.161-553.791-5.751c-265.506-8.762-509.398-16.839-698.166,18.277
				c-384.82,71.573-515.487,399.186-649.639,735.501c-58.849,147.569-118.406,296.847-200.611,425.822H1933.945z M1998.026,9000
				c65.742-117.062,116.681-246.331,167.124-374.339c129.637-328.997,255.893-649.451,623.931-719.502
				c185.325-35.256,427.7-28.257,691.558-20.632c167.345,4.851,343.316,9.929,519.362,4.669v-30.437
				c-175.578,5.271-351.381,0.211-518.553-4.632c-265.44-7.675-509.286-14.72-698.04,21.207
				c-384.527,73.178-513.835,401.33-646.573,738.197c-52.159,132.356-104.867,266.09-173.961,385.469H1998.026z M2059.967,9000
				c54.888-106.152,99.458-220.627,143.622-334.097c128.266-329.563,253.199-650.546,620.978-722.129
				c185.243-36.05,427.565-30.046,691.363-23.511c156.188,3.875,319.879,7.917,484.071,3.58v-30.446
				c-163.786,4.35-327.269,0.314-483.237-3.542c-265.566-6.575-509.506-12.6-698.066,24.094
				c-384.172,74.774-512.118,403.415-643.446,740.81c-45.785,117.638-92.008,236.368-149.766,345.24H2059.967z M2119.979,9000
				c45.418-94.618,83.882-194.664,122.053-293.954c126.891-330.04,250.5-651.548,618.037-724.642
				c185.165-36.855,427.475-31.857,691.25-26.426c144.958,2.993,296.381,6.106,448.681,2.513v-30.421
				c-151.92,3.601-303.217,0.488-448.033-2.492c-265.613-5.491-509.593-10.502-697.945,26.967
				c-383.792,76.366-510.363,405.584-640.294,743.53c-39.705,103.247-79.739,207.34-127.579,304.925H2119.979z M2178.499,9000
				c37.055-82.554,69.66-168.446,102.057-253.773c125.533-330.615,247.789-652.638,614.97-727.275
				c184.884-37.582,427.268-33.599,691.177-29.258c133.745,2.193,272.995,4.485,413.296,1.531v-30.434
				c-140.08,2.989-279.205,0.697-412.829-1.495c-265.527-4.354-509.446-8.385-697.759,29.893
				c-383.558,77.975-508.737,407.683-637.271,746.155c-33.842,89.149-67.93,178.938-107.095,264.657H2178.499z M4000,7270.643
				c-84.198,16.424-170.627,26.781-258.245,32.506c-285.972,18.721-585.198-11.165-860.788-38.698
				c-264.338-26.425-507.167-50.686-697.871-28.169c-388.695,45.855-540.862,364.057-697.037,690.724
				c-126.528,264.61-255.772,534.928-516.495,663.402c-18.841,9.305-37.189,17.404-55.061,24.358
				c-112.733-294.37-230.089-597.712-391.38-806.021c-12.095-17.457-24.488-34.419-37.128-50.762
				c-11.974-17.306-24.194-34.1-36.7-50.29c-12.022-17.419-24.281-34.274-36.821-50.551c-12.087-17.544-24.428-34.53-37.055-50.883
				c-11.853-17.272-23.965-34.016-36.38-50.158c-11.844-17.285-23.965-34.055-36.384-50.197
				c-11.935-17.491-24.16-34.406-36.661-50.736c-12-17.578-24.272-34.591-36.834-50.992c-11.693-17.158-23.671-33.793-35.952-49.838
				c-11.757-17.335-23.792-34.113-36.146-50.282c-11.892-17.578-24.064-34.567-36.553-50.931
				c-11.732-17.309-23.684-34.065-36.004-50.184c-11.727-17.383-23.74-34.235-36.086-50.443
				c-11.667-17.303-23.597-34.074-35.865-50.181c-4.143-6.176-8.337-12.281-12.554-18.328v221.331
				c4.082,1.444,8.138,2.94,12.173,4.495l1.777,5.173c-4.622-1.309-9.267-2.547-13.95-3.724v32.553
				c8.899,2.378,17.678,4.991,26.357,7.871l2.452,7.355c-9.488-2.243-19.088-4.215-28.809-5.907v32.15
				c13.743,2.539,27.239,5.667,40.475,9.367l2.992,9.314c-14.231-2.718-28.722-4.843-43.468-6.339v31.883
				c18.608,1.998,36.774,5.052,54.499,9.101l3.52,11.238c-18.893-2.782-38.235-4.511-58.019-5.147v31.659
				c23.511,0.813,46.322,3.26,68.475,7.234l4.004,13.028c-23.485-2.452-47.632-3.286-72.479-2.439v31.604
				c28.45-0.982,55.947,0.354,82.507,3.869l4.389,14.604c-28.021-1.742-56.972-1.241-86.896,1.665v31.722
				c33.453-3.36,65.617-3.589,96.557-0.921c13.959,47.062,27.667,94.24,41.284,141.201
				c67.709,233.323,133.585,460.226,219.512,634.571c43.87,89.049,92.877,164.494,149.741,220.416
				c12.77,15.519,25.924,29.972,39.528,43.333c12.761,15.481,25.929,29.906,39.52,43.27c12.748,15.407,25.889,29.798,39.433,43.121
				c12.627,15.213,25.595,29.444,38.992,42.606c12.921,15.606,26.222,30.18,39.947,43.628
				c12.813,15.445,26.014,29.832,39.632,43.195c12.674,15.187,25.69,29.396,39.126,42.585c12.869,15.468,26.123,29.92,39.778,43.315
				c12.795,15.3,25.946,29.617,39.48,42.906c11.606,13.876,23.533,26.926,35.732,39.125h320.441
				c29.838-10.676,60.899-24.578,93.309-41.911c265.514-142.003,387.848-421.372,507.603-694.791
				c141.836-323.926,279.992-639.449,650.409-695.677c186.514-28.317,428.435-12.244,691.804,5.25
				c268.394,17.808,559.027,37.088,838.172,12.6v-30.5c-277.492,24.627-567.975,5.318-836.187-12.465
				c-264.965-17.602-508.365-33.77-698.347-4.925c-387.004,58.735-528.459,381.826-673.685,713.498
				c-117.676,268.661-237.865,543.1-494.225,680.206c-86.403,46.221-162.696,66.044-230.838,64.219l-5.466-12.506
				c63.078-5.099,132.508-26.624,209.536-67.402c266.129-140.893,389.612-419.721,510.462-692.65
				c143.206-323.334,282.673-638.26,653.322-692.955c186.601-27.542,428.496-10.468,691.779,8.116
				c277.553,19.586,578.876,40.865,866.639,13.619l7.01-0.676v-30.619l-9.881,0.956c-285.458,27.019-585.367,5.859-861.584-13.643
				c-264.891-18.708-508.243-35.879-698.385-7.796c-387.199,57.123-530.012,379.608-676.665,710.717
				c-118.714,268.152-240.057,542.11-496.992,678.147c-77.149,40.877-146.195,60.82-208.551,63.186l-6.227-14.646
				c57.193-7.637,119.549-28.375,187.911-64.22c266.742-139.834,391.376-418.121,513.381-690.527
				c144.517-322.733,285.272-637.071,656.155-690.234c187.042-26.805,428.677-8.739,691.744,10.937
				c277.54,20.764,578.846,43.266,866.548,17.232c14.218-1.285,28.402-2.695,42.546-4.217v-30.64
				c-15.04,1.642-30.127,3.16-45.253,4.535c-285.73,25.862-585.48,3.441-861.61-17.177
				c-264.965-19.816-508.382-38.022-698.303-10.811c-387.468,55.542-531.63,377.454-679.619,707.934
				c-119.869,267.664-242.323,541.13-499.772,676.09c-68.164,35.718-129.944,55.268-186.328,60.858l-6.78-16.487
				c51.126-9.375,106.325-28.951,166.143-59.986c267.27-138.688,393.079-416.495,516.209-688.435
				c145.87-322.098,287.935-635.868,659.026-687.461c187.115-26.037,428.704-6.976,691.684,13.803
				c277.341,21.88,578.452,45.658,866.534,20.777c26.149-2.256,52.181-4.917,78.071-8.005v-30.598
				c-26.759,3.251-53.677,6.034-80.717,8.364c-285.557,24.648-585.332,0.976-861.475-20.806
				c-264.853-20.924-508.17-40.128-698.252-13.677c-387.687,53.918-533.173,375.208-682.559,705.075
				c-120.958,267.157-244.567,540.091-502.631,673.992c-59.325,30.793-113.81,49.361-164.106,57.231l-7.243-18.055
				c44.873-10.368,92.829-28.341,144.249-54.752c267.966-137.607,394.922-414.865,519.162-686.226
				c147.207-321.51,290.573-634.686,661.898-684.733c187.137-25.237,428.703-5.173,691.631,16.683
				c277.194,23.044,578.15,48.049,866.401,24.393c38.149-3.135,76.047-7.124,113.642-12.062v-30.767
				c-38.425,5.149-77.188,9.28-116.201,12.492c-285.583,23.435-585.272-1.473-861.342-24.405
				c-264.744-21.994-507.949-42.216-698.212-16.562c-387.922,52.316-534.769,373.001-685.491,702.247
				c-122.1,266.681-246.846,539.145-505.338,671.896c-50.784,26.096-98.014,43.28-142.044,52.526l-7.649-19.403
				c38.525-10.616,79.272-26.663,122.454-48.631c268.494-136.474,396.613-413.229,521.986-684.088
				c148.538-320.907,293.254-633.494,664.76-682.037c186.968-24.414,428.543-3.32,691.497,19.649
				c277.073,24.187,577.903,50.443,866.306,27.948c50.218-3.922,100.046-9.301,149.273-16.435v-30.792
				c-49.989,7.393-100.613,12.933-151.665,16.915c-285.592,22.263-585.22-3.888-861.23-27.982
				c-264.51-23.11-507.543-44.314-698.165-19.42c-388.094,50.688-536.265,370.761-688.358,699.353
				c-123.19,266.141-249.064,538.069-508.157,669.776c-42.452,21.562-82.372,36.994-120.042,46.754l-8.004-20.531
				c32.03-10.188,65.569-23.965,100.734-41.677c268.986-135.35,398.269-411.566,524.805-681.949
				c149.862-320.293,295.84-632.29,667.554-679.277c187.176-23.656,428.617-1.565,691.475,22.495
				c277.06,25.364,577.843,52.868,866.12,31.59c62.377-4.598,124.132-11.473,184.931-21.133v-30.888
				c-61.474,9.99-123.999,17.05-187.15,21.708c-285.899,21.106-585.32-6.3-861.134-31.529
				c-264.485-24.208-507.435-46.468-698.066-22.347c-388.327,49.081-537.783,368.544-691.251,696.486
				c-124.284,265.625-251.283,536.974-510.976,667.654c-34.335,17.274-67.039,30.512-98.148,40.046l-8.299-21.534
				c25.409-9.034,51.762-20.324,79.074-33.941c269.583-134.246,400.007-409.914,527.646-679.756
				c151.202-319.667,298.499-631,670.378-676.452c187.435-22.909,428.69,0.182,691.337,25.322
				c277.06,26.512,577.842,55.283,866.033,35.229c74.576-5.197,148.309-13.643,220.555-26.195v-31.089
				c-72.885,12.983-147.336,21.64-222.674,26.884c-286.171,19.919-585.371-8.718-860.987-35.082
				c-264.446-25.308-507.383-48.553-697.992-25.261c-388.496,47.484-539.305,366.285-694.157,693.601
				c-125.382,265.111-253.527,535.957-513.722,665.525c-26.465,13.188-51.948,24.021-76.488,32.592l-8.58-22.421
				c18.681-7.351,37.876-15.861,57.612-25.57c270.172-133.118,401.685-408.252,530.453-677.532
				c152.534-319.032,301.112-629.777,673.185-673.671c187.47-22.115,428.664,1.958,691.216,28.201
				c276.827,27.642,577.376,57.675,865.934,38.785c86.87-5.685,172.59-15.775,256.199-31.635V7270.643z"/>
		</defs>
		<clipPath id="SVGID_00000011727099082612744280000000561524452281344660_">
			<use xlink:href="#SVGID_1_"  style="overflow:visible;"/>
		</clipPath>
		
			<linearGradient id="SVGID_00000032646973625112746350000003250753734282861759_" gradientUnits="userSpaceOnUse" x1="2029.4749" y1="9232.9678" x2="1919.641" y2="4794.978">
			<stop  offset="0" style="stop-color:#E6E6E6"/>
			<stop  offset="1" style="stop-color:#FFFFFF"/>
		</linearGradient>
		
			<rect y="7083.99" style="clip-path:url(#SVGID_00000011727099082612744280000000561524452281344660_);fill:url(#SVGID_00000032646973625112746350000003250753734282861759_);" width="4000" height="1916.01"/>
	</g>
	<g>
		<defs>
			<path id="SVGID_00000183942780061323197570000017229015093281627298_" d="M0,7775.694
				c239.21-168.494,377.379-450.091,513.026-726.575c187.016-381.205,369.167-752.491,806.35-788.259
				c220.334-18.029,502.358,22.714,809.355,67.123c323.848,46.811,675.45,97.634,1013.789,88.38
				c307.036-8.425,602.971-66.009,857.48-219.771v-45.695c-253.527,160.428-550.556,219.879-859.045,228.333
				c-335.952,9.192-685.69-41.332-1007.86-87.913c-309.129-44.713-593.09-85.754-817.152-67.414
				c-456.733,37.396-643.247,417.585-834.739,807.893C351.701,7295.758,219.807,7564.472,0,7729.841V7775.694z M0,7859.896
				c267.637-164.625,413.503-464.987,556.541-759.564c185.459-382.049,366.148-754.169,803.15-791.837
				c220.088-18.987,502.35,20.605,809.614,63.666c323.896,45.441,675.51,94.714,1013.997,83.964
				c291.036-9.24,571.949-62.623,816.698-200.131v-44.544c-243.988,143.328-525.956,198.369-818.375,207.648
				c-335.667,10.689-685.711-38.405-1008.163-83.603c-309.154-43.354-593.189-83.175-817.312-63.861
				c-456.538,39.373-641.521,420.393-831.43,811.561C387.506,7365.872,247.581,7653.987,0,7816.073V7859.896z M0,7940.466
				c297.276-158.506,450.29-476.974,600.151-788.946c183.942-382.846,363.087-755.727,799.928-795.306
				c219.833-19.906,502.311,18.446,809.715,60.232c323.961,43.968,675.657,91.727,1014.351,79.52
				c275.247-9.929,541.241-59.364,775.855-181.971v-43.623c-234.098,127.677-501.156,178.584-777.74,188.558
				c-335.373,12.088-685.677-35.47-1008.349-79.293c-309.302-42.005-593.436-80.607-817.593-60.306
				c-456.344,41.345-639.792,423.172-828.097,815.201C423.8,7435.143,276.377,7741.9,0,7898.235V7940.466z M0,8017.616
				c4.744-2.193,9.513-4.437,14.305-6.755c318.249-153.469,475.518-484.318,629.448-808.125
				c182.372-383.633,359.986-757.32,796.646-798.766c220.109-20.877,502.54,16.203,809.978,56.645
				c324.147,42.567,676.051,88.855,1014.537,75.163c259.633-10.507,510.89-56.041,735.086-164.965v-43.034
				c-223.876,113.43-476.201,160.391-737.145,170.933c-335.346,13.558-685.819-32.495-1008.604-74.922
				c-309.557-40.695-593.951-78.065-817.701-56.851c-456.197,43.335-638.093,426.009-824.862,818.904
				C460.586,7503.646,306.223,7828.38,0,7976.687V8017.616z M0,8091.872c19.944-7.857,40.367-16.865,61.279-27.065
				c317.448-154.766,473.442-486.351,626.062-810.921c180.802-384.464,356.934-758.949,793.386-802.318
				c220.062-21.846,502.579,14.06,810.138,53.151c324.316,41.231,676.445,85.949,1014.806,70.834
				c244.187-10.93,480.849-52.881,694.329-149.325v-42.261c-213.333,100.413-451.033,143.621-696.509,154.619
				c-335.399,14.978-685.958-29.544-1008.877-70.567c-309.738-39.387-594.266-75.519-817.834-53.335
				c-455.951,45.291-636.311,428.762-821.489,822.496C505.316,7556.04,352.095,7881.8,45.565,8031.232
				c-15.472,7.551-30.659,14.404-45.565,20.558V8091.872z M0,8162.98c34.521-11.031,70.546-25.716,108.176-44.276
				c316.899-156.211,471.504-488.434,622.828-813.645c179.245-385.274,353.846-760.527,790.125-805.747
				c220.023-22.825,502.605,11.866,810.259,49.595c324.609,39.849,677.019,83.094,1014.944,66.498
				c228.961-11.256,451.172-49.78,653.669-134.861v-41.542c-202.51,88.454-425.75,128.06-655.926,139.358
				c-335.602,16.488-686.187-26.539-1009.093-66.178c-309.963-38.038-594.625-72.972-817.986-49.804
				c-455.79,47.251-634.581,431.557-818.181,826.085C550.116,7608,398.23,7934.473,92.375,8085.229
				c-32.004,15.787-62.771,28.548-92.375,38.438V8162.98z M0,8230.533c48.505-11.485,100.111-30.56,155.137-57.954
				c316.173-157.563,469.46-490.509,619.455-816.389c177.727-386.071,350.832-762.137,786.886-809.246
				c219.478-23.72,502.411,9.755,810.41,46.198c324.657,38.418,677.107,80.143,1015.125,62.077
				c213.848-11.426,421.728-46.642,612.986-121.279v-41.142c-191.431,77.644-400.336,113.855-615.425,125.352
				c-335.359,17.895-686.14-23.596-1009.252-61.866c-309.803-36.652-594.439-70.349-818.147-46.162
				c-455.47,49.213-632.756,434.289-814.747,829.638c-147.375,320.2-297.985,647.334-603.217,799.452
				C89.975,8163.753,43.649,8181.046,0,8191.775V8230.533z M0,8294.286c61.867-8.961,129.001-30.988,202.133-67.848
				c315.512-158.895,467.423-492.556,616.16-819.135c176.166-386.845,347.788-763.708,783.552-812.702
				c219.448-24.675,502.445,7.588,810.518,42.731c324.657,36.982,677.145,77.163,1015.298,57.622
				c198.908-11.486,392.565-43.562,572.338-108.785v-40.416c-180.088,67.735-374.78,100.661-574.902,112.218
				c-334.979,19.357-686.088-20.666-1009.447-57.511c-309.976-35.364-594.712-67.783-818.233-42.68
				c-455.302,51.21-631.001,437.061-811.401,833.206c-146.1,320.846-295.351,648.629-599.992,802.071
				C118.826,8226.905,57.05,8247.237,0,8255.613V8294.286z M0,8353.549c74.59-3.173,157.135-26.438,249.138-73.287
				c314.901-160.331,465.463-494.612,612.865-821.821c174.601-387.66,344.674-765.249,780.244-816.143
				c219.448-25.62,502.518,5.392,810.605,39.186c324.891,35.625,677.582,74.284,1015.458,53.285
				c184.097-11.434,363.61-40.484,531.69-97.093v-40.046c-168.521,58.812-349.102,88.636-534.401,100.144
				c-335.039,20.816-686.2-17.687-1009.672-53.159c-310.097-33.965-595.04-65.247-818.328-39.152
				c-454.995,53.172-629.176,439.821-807.954,836.725c-144.841,321.559-292.791,650.052-596.744,804.756
				C146.9,8290.73,69.759,8312.267,0,8314.817V8353.549z M0,8407.876c86.628,6.153,184.456-16.364,296.147-73.838
				c314.24-161.718,463.466-496.684,609.531-824.532c173.044-388.447,341.613-766.83,776.919-819.59
				c219.158-26.56,502.371,3.251,810.683,35.723c325.059,34.234,677.915,71.388,1015.661,48.93
				c169.416-11.265,334.897-37.423,491.059-86.232v-39.753c-156.737,50.725-323.334,77.617-494,88.956
				c-334.992,22.273-686.165-14.699-1009.633-48.762c-310.209-32.669-595.174-62.676-818.501-35.57
				c-454.8,55.132-627.411,442.513-804.585,840.269c-143.514,322.142-290.167,651.289-593.458,807.329
				C174.194,8355.158,81.82,8375.725,0,8368.677V8407.876z M0,8456.727c98.061,19.303,210.946-0.22,343.195-68.95
				c313.661-163.115,461.503-498.708,606.218-827.213c171.462-389.209,338.534-768.305,773.585-822.976
				c219.132-27.528,502.411,1.103,810.756,32.202c325.024,32.799,677.875,68.424,1015.747,44.497
				c154.891-10.969,306.435-34.396,450.498-76.184v-39.273c-144.763,43.393-297.423,67.479-453.559,78.538
				c-334.663,23.69-686.079-11.771-1009.784-44.449c-310.339-31.318-595.455-60.087-818.583-32.078
				c-454.567,57.123-625.574,445.297-801.17,843.795c-142.212,322.86-287.529,652.678-590.123,810.017
				c-126.195,65.63-233.618,82.767-326.78,61.954V8456.727z M0,8597.688c11.805,14.893,23.853,29.076,36.151,42.485
				c14.612,19.084,29.613,37.055,44.998,53.838c14.473,18.849,29.331,36.66,44.557,53.296
				c158.649,206.751,358.425,284.722,642.304,122.809c307.265-175.201,442.887-516.554,575.612-850.711
				c157.256-395.851,310.417-781.466,742.977-853.042c217.822-36.011,501.749-18.446,810.852,0.702
				c325.885,20.151,679.683,42.079,1015.938,5.07c29.011-3.194,57.893-6.828,86.611-10.943v-37.571
				c-30.14,4.39-60.466,8.237-90.952,11.595c-333.656,36.739-685.772,14.931-1010.113-5.146
				c-311.014-19.283-596.731-36.969-818.57-0.246c-451.885,74.761-608.709,469.559-769.689,874.835
				c-130.437,328.324-263.667,663.719-560.317,832.887c-151.959,86.663-278.288,98.996-386.559,56.891
				c102.438,21.366,219.793-0.428,356.86-77.789c308.013-173.935,444.993-514.652,579.045-848.187
				c158.847-395.089,313.574-779.97,746.506-849.669c218.077-35.116,501.909-16.316,810.851,4.144
				c325.691,21.574,679.303,45.011,1016.033,9.415c42.62-4.511,84.946-9.956,126.905-16.464v-37.616
				c-43.342,6.875-87.091,12.561-131.159,17.219c-333.496,35.291-685.686,11.917-1010.088-9.549
				c-311.087-20.619-596.839-39.532-818.695-3.801c-452.128,72.824-610.534,466.911-773.204,871.49
				c-131.722,327.761-266.314,662.554-563.599,830.414c-151.911,85.768-278.046,97.754-385.924,55.626
				c102.104,21.401,219.18-0.013,356.06-76.552c308.773-172.551,447.09-512.653,582.504-845.525
				c160.417-394.457,316.688-778.635,749.866-846.458c218.189-34.161,501.969-14.131,810.886,7.665
				c325.79,23.004,679.471,47.959,1016.133,13.849c56.298-5.712,112.111-13.067,167.219-22.334v-37.777
				c-56.436,9.715-113.629,17.346-171.362,23.205c-333.937,33.828-685.872,8.992-1010.079-13.904
				c-310.976-21.967-596.671-42.092-818.743-7.343c-452.508,70.876-612.506,464.201-776.759,868.056
				c-133.084,327.148-269.034,661.379-566.997,827.928c-151.605,84.725-277.393,96.466-384.834,54.473
				c101.694,21.313,218.397,0.245,354.936-75.338c309.436-171.193,449.174-510.708,585.912-843.037
				c162.021-393.67,319.839-777.155,753.26-843.077c218.263-33.208,502.069-11.961,810.999,11.183
				c325.639,24.4,679.165,50.891,1016.046,18.201c70.088-6.804,139.431-16.145,207.621-28.571v-37.882
				c-69.426,12.975-140.106,22.629-211.569,29.558c-333.998,32.384-685.967,6.018-1010.209-18.28
				c-310.798-23.276-596.342-44.652-818.635-10.858c-452.863,68.899-614.443,461.577-780.331,864.683
				c-134.368,326.513-271.667,660.094-570.34,825.354c-151.383,83.744-276.757,95.155-383.791,53.284
				c101.253,21.254,217.614,0.541,353.846-74.074c310.131-169.866,451.232-508.732,589.293-840.417
				c163.604-392.984,322.966-775.754,756.707-839.813c218.518-32.25,502.186-9.794,810.96,14.672
				c325.504,25.802,678.896,53.784,1016.02,22.59c83.969-7.783,166.878-19.217,248.049-35.24v-37.961
				c-82.308,16.656-166.497,28.422-251.785,36.333c-334.089,30.915-686.031,3.027-1010.187-22.677
				c-310.871-24.627-596.424-47.268-818.721-14.429c-453.157,66.925-616.342,458.869-783.872,861.265
				c-135.665,325.92-274.301,658.868-573.588,822.826c-151.31,82.875-276.498,93.884-383.138,51.96
				c100.915,21.331,216.996,0.994,353.033-72.725c310.858-168.543,453.291-506.769,592.714-837.829
				c165.169-392.21,326.093-774.247,760.054-836.442c218.652-31.342,502.237-7.625,810.947,18.193
				c325.556,27.206,678.944,56.724,1016.072,27c97.936-8.641,194.454-22.257,288.472-42.327v-38.27
				c-95.121,20.879-192.888,34.889-292.152,43.641c-334.343,29.505-686.079,0.095-1010.062-26.966
				c-310.724-26.003-596.195-49.854-818.696-17.958c-453.489,64.988-618.223,456.169-787.353,857.807
				c-137.006,325.322-276.991,657.663-576.973,820.289c-151.25,82.015-276.238,92.67-382.55,50.673
				c100.621,21.413,216.447,1.457,352.349-71.438c311.516-167.158,455.324-504.761,596.091-835.218
				c166.73-391.44,329.146-772.706,763.514-833.024c218.898-30.413,502.332-5.479,810.873,21.648
				c325.418,28.597,678.689,59.656,1015.985,31.368c112.025-9.394,222.219-25.29,328.973-49.915v-38.5
				c-107.756,25.604-219.154,41.968-332.467,51.467c-334.391,28.048-686.04-2.893-1009.988-31.342
				c-310.758-27.346-596.242-52.415-818.734-21.534c-453.698,63.014-620.022,453.511-790.783,854.4
				c-138.307,324.682-279.589,656.366-580.286,817.713c-151.003,80.997-275.676,91.38-381.534,49.534
				c100.232,21.34,215.69,1.751,351.212-70.252c312.238-165.796,457.407-502.747,599.477-832.544
				c168.335-390.714,332.294-771.306,766.83-829.714c218.951-29.444,502.445-3.286,810.977,25.177
				c325.232,29.999,678.343,62.562,1015.821,35.744c126.208-10.037,250.12-28.349,369.474-58.112v-38.648
				c-120.236,30.888-245.302,49.677-372.747,59.818c-334.486,26.559-686.126-5.859-1010.062-35.731
				c-310.551-28.66-595.836-54.966-818.596-25.007c-454.031,61.021-621.945,450.78-794.315,850.848
				c-139.617,324.046-282.262,655.116-583.568,815.152c-150.735,80.029-275.04,90.082-380.444,48.367
				c99.778,21.279,214.877,2.01,350.044-69.033c312.83-164.365,459.384-500.719,602.811-829.898
				c169.905-389.959,335.42-769.815,770.217-826.357c219.045-28.497,502.41-1.117,810.898,28.681
				c325.176,31.421,678.174,65.521,1015.826,40.147c140.487-10.568,278.167-31.369,409.936-66.83v-38.906
				c-132.591,36.787-271.447,58.139-413.196,68.791c-334.599,25.153-686.126-8.776-1009.88-40.083
				c-310.465-29.969-595.628-57.55-818.548-28.547c-454.307,59.042-623.784,448.043-797.784,847.364
				c-140.901,323.398-284.843,653.814-586.902,812.527c-147.717,77.63-269.916,88.432-373.69,49.401V8597.688z M4000,6088.957
				c-262.695,178.991-575.01,242.986-899.767,250.5c-335.679,7.757-685.417-44.348-1007.527-92.336
				c-308.943-46.027-592.749-88.291-816.931-70.9c-456.906,35.391-644.977,414.753-838.025,804.219
				C316.532,7224.884,193.308,7473.408,0,7639.329v47.927c211.902-169.927,341.794-431.9,469.46-689.408
				c188.538-380.363,372.185-750.812,809.567-784.719c220.356-17.063,502.285,24.894,809.122,70.628
				c323.542,48.196,674.814,100.513,1013.555,92.708c323.213-7.464,634.374-69.38,898.297-240.806V6088.957z"/>
		</defs>
		<clipPath id="SVGID_00000044163514398491157150000000484707245225939125_">
			<use xlink:href="#SVGID_00000183942780061323197570000017229015093281627298_"  style="overflow:visible;"/>
		</clipPath>
		
			<linearGradient id="SVGID_00000000931345008197933940000002942892784694345650_" gradientUnits="userSpaceOnUse" x1="2663.7932" y1="10730.6504" x2="1520.0293" y2="5268.2388">
			<stop  offset="0" style="stop-color:#E6E6E6"/>
			<stop  offset="1" style="stop-color:#FFFFFF"/>
		</linearGradient>
		
			<rect y="6088.957" style="clip-path:url(#SVGID_00000044163514398491157150000000484707245225939125_);fill:url(#SVGID_00000000931345008197933940000002942892784694345650_);" width="4000" height="2943.073"/>
	</g>
	<g>
		<defs>
			<path id="SVGID_00000092440765702159618740000011233008560831044516_" d="M2645.84,0
				c-264.303,143.291-385.348,422.795-503.807,696.373c-140.5,324.488-277.358,640.599-647.515,698.371
				c-186.493,29.077-428.448,14.036-691.804-2.352C545.545,1376.386,268.018,1359.127,0,1380.208v30.51
				c266.716-21.204,544.001-3.959,800.875,12.014c265.073,16.509,508.612,31.661,698.386,2.046
				c386.706-60.345,526.859-384,670.719-716.279c116.534-269.16,235.594-544.148,491.34-682.282
				c18.374-9.926,36.28-18.641,53.759-26.216H2645.84z M2536.497,0c-217.269,152.584-326.102,406.788-432.794,656.071
				c-139.151,325.098-274.686,641.763-644.622,701.058c-186.233,29.88-428.301,15.823-691.77,0.528
				c-245.899-14.284-510.462-29.655-767.31-11.6v30.521c255.746-18.18,519.928-2.832,765.473,11.426
				c265.125,15.395,508.659,29.542,698.446-0.908c386.477-61.963,525.273-386.177,667.744-719.05
				C2242.753,408.551,2356.174,143.634,2592.024,0H2536.497z M2441.527,0c-181.441,155.477-279.698,387.674-376.194,615.766
				c-137.814,325.676-272.035,642.896-641.716,703.756c-186.182,30.619-428.25,17.591-691.765,3.368
				c-234.578-12.635-486.13-26.193-731.852-10.784v30.474c244.494-15.469,495.838-1.951,730.182,10.676
				c265.198,14.292,508.845,27.433,698.459-3.777c386.205-63.571,523.651-388.373,664.739-721.835
				C2193.392,391.292,2295.267,150.449,2489.673,0H2441.527z M2355.833,0c-152.646,154.25-241.48,366.607-328.851,575.524
				c-136.444,326.204-269.367,643.972-638.755,706.353c-186.12,31.429-428.236,19.378-691.839,6.276
				c-223.361-11.106-462.104-22.973-696.388-9.929v30.434c233.277-13.102,471.803-1.238,694.931,9.847
				c265.246,13.21,508.94,25.322,698.312-6.648c385.997-65.183,522.068-390.579,661.781-724.627
				C2145.315,371.336,2237.162,151.75,2399.677,0H2355.833z M2276.842,0c-129.11,150.18-209.299,344.135-288.29,535.235
				c-135.082,326.787-266.656,645.089-635.797,709.008c-186,32.216-428.163,21.173-691.791,9.172
				c-212.131-9.673-438.152-19.982-660.964-8.984v30.447c221.917-11.032,447.73-0.75,659.615,8.913
				c265.345,12.099,509.078,23.189,698.312-9.575c385.702-66.78,520.464-392.739,658.78-727.362
				C2098.223,349.638,2181.038,149.333,2317.71,0H2276.842z M2202.914,0c-109.339,144.001-181.55,320.685-252.741,495.015
				c-133.706,327.294-263.957,646.131-632.895,711.586c-185.961,33.026-428.076,22.983-691.653,12.062
				C424.647,1210.354,211.24,1201.515,0,1210.71v30.458c210.479-9.24,423.605-0.417,624.289,7.894
				c265.467,10.995,509.347,21.083,698.325-12.463c385.37-68.377,518.782-394.911,655.714-730.136
				C2051.763,326.679,2126.266,144.334,2241.625,0H2202.914z M2132.913,0c-92.569,136.21-157.269,296.44-221.168,454.725
				c-132.37,327.93-261.298,647.327-629.89,714.321c-185.679,33.733-427.929,24.707-691.653,14.891
				c-189.774-7.073-390.645-14.551-590.201-6.889v30.474c198.946-7.709,399.554-0.245,589.034,6.802
				c265.432,9.882,509.26,18.95,698.239-15.382c385.127-69.979,517.156-397.04,652.691-732.817
				c65.92-163.31,132.712-328.719,230.151-466.125H2132.913z M2066.059,0c-78.156,127.123-135.782,271.607-192.767,414.497
				c-131.012,328.471-258.604,648.396-626.923,716.905c-185.593,34.53-427.868,26.512-691.571,17.786
				c-178.544-5.899-366.922-12.125-554.799-5.764v30.426c187.262-6.387,375.446-0.161,553.796,5.746
				c265.501,8.765,509.394,16.844,698.165-18.275c384.816-71.573,515.487-399.184,649.634-735.499
				C1960.444,278.247,2020.006,128.975,2102.206,0H2066.059z M2001.974,0c-65.738,117.062-116.682,246.33-167.12,374.337
				c-129.641,328.999-255.897,649.452-623.935,719.504c-185.325,35.256-427.696,28.254-691.558,20.632
				c-167.34-4.856-343.316-9.929-519.361-4.672v30.437c175.582-5.273,351.381-0.209,518.553,4.635
				c265.44,7.67,509.285,14.719,698.044-21.207c384.522-73.178,513.83-401.329,646.572-738.199
				C1915.324,253.111,1968.033,119.379,2037.13,0H2001.974z M1940.038,0c-54.893,106.151-99.463,220.626-143.626,334.095
				c-128.266,329.561-253.195,650.542-620.977,722.131c-185.239,36.045-427.561,30.041-691.364,23.511
				c-156.188-3.875-319.878-7.923-484.071-3.582v30.447c163.79-4.349,327.269-0.319,483.237,3.542
				c265.566,6.572,509.506,12.6,698.07-24.1c384.168-74.769,512.113-403.415,643.446-740.806
				C1870.534,227.602,1916.76,108.872,1974.515,0H1940.038z M1880.021,0c-45.413,94.619-83.878,194.665-122.047,293.954
				c-126.896,330.036-250.501,651.545-618.037,724.638c-185.165,36.858-427.479,31.859-691.25,26.43
				c-144.962-2.993-296.381-6.107-448.686-2.513v30.421c151.925-3.603,303.222-0.488,448.033,2.492
				c265.614,5.49,509.593,10.502,697.945-26.966c383.791-76.369,510.367-405.587,640.298-743.533
				c39.701-103.25,79.735-207.34,127.579-304.923H1880.021z M1821.505,0c-37.059,82.553-69.664,168.447-102.061,253.773
				c-125.529,330.614-247.789,652.637-614.971,727.275c-184.884,37.581-427.267,33.599-691.177,29.26
				c-133.745-2.193-272.991-4.484-413.296-1.531v30.434c140.085-2.99,279.209-0.697,412.829,1.494
				c265.527,4.352,509.446,8.385,697.763-29.896c383.557-77.971,508.732-407.68,637.267-746.151
				C1781.7,175.504,1815.793,85.72,1854.953,0H1821.505z M0,1729.358c84.198-16.424,170.631-26.781,258.25-32.506
				c285.972-18.721,585.194,11.164,860.788,38.698c264.338,26.425,507.163,50.683,697.871,28.167
				c388.691-45.858,540.857-364.054,697.037-690.723c126.523-264.61,255.767-534.926,516.49-663.401
				c18.841-9.306,37.193-17.409,55.065-24.358c112.733,294.368,230.09,597.711,391.376,806.019
				c12.099,17.459,24.492,34.422,37.128,50.759c11.978,17.309,24.199,34.1,36.7,50.295c12.026,17.419,24.281,34.274,36.821,50.551
				c12.087,17.538,24.432,34.53,37.055,50.883c11.857,17.272,23.965,34.016,36.384,50.158c11.84,17.285,23.961,34.052,36.38,50.195
				c11.94,17.493,24.16,34.409,36.661,50.738c12,17.573,24.272,34.588,36.834,50.992c11.698,17.158,23.671,33.794,35.952,49.836
				c11.758,17.338,23.797,34.116,36.151,50.284c11.887,17.578,24.06,34.567,36.553,50.931c11.732,17.309,23.679,34.06,35.999,50.181
				c11.732,17.385,23.745,34.237,36.086,50.443c11.671,17.306,23.597,34.076,35.866,50.184c4.147,6.176,8.337,12.281,12.553,18.322
				V1694.68c-4.083-1.444-8.138-2.94-12.173-4.497l-1.778-5.17c4.623,1.309,9.267,2.547,13.95,3.721v-32.556
				c-8.899-2.375-17.674-4.986-26.352-7.865l-2.452-7.356c9.488,2.243,19.083,4.215,28.804,5.907v-32.152
				c-13.738-2.536-27.235-5.664-40.475-9.364l-2.992-9.317c14.236,2.721,28.722,4.843,43.468,6.337v-31.883
				c-18.607-1.998-36.774-5.046-54.499-9.095l-3.516-11.238c18.888,2.782,38.231,4.511,58.014,5.147v-31.664
				c-23.511-0.808-46.321-3.26-68.471-7.229l-4.008-13.03c23.485,2.452,47.632,3.283,72.479,2.441v-31.603
				c-28.449,0.982-55.943-0.354-82.507-3.875l-4.389-14.598c28.021,1.742,56.977,1.24,86.896-1.665v-31.722
				c-33.453,3.355-65.616,3.59-96.552,0.916c-13.963-47.056-27.667-94.234-41.284-141.196
				c-67.714-233.324-133.585-460.231-219.512-634.571c-43.87-89.051-92.877-164.501-149.741-220.417
				c-12.774-15.519-25.928-29.969-39.532-43.332c-12.76-15.482-25.923-29.906-39.519-43.269
				c-12.748-15.408-25.889-29.798-39.433-43.121c-12.627-15.213-25.595-29.444-38.992-42.612
				c-12.921-15.601-26.218-30.175-39.947-43.623c-12.809-15.445-26.01-29.837-39.632-43.195
				c-12.674-15.187-25.69-29.397-39.126-42.585c-12.869-15.469-26.119-29.919-39.775-43.322c-12.8-15.295-25.95-29.61-39.485-42.899
				c-11.606-13.877-23.532-26.932-35.731-39.125h-320.441c-29.833,10.676-60.894,24.575-93.305,41.91
				c-265.514,142.003-387.847,421.37-507.608,694.792c-141.831,323.921-279.992,639.449-650.408,695.677
				c-186.514,28.315-428.43,12.244-691.804-5.25c-268.394-17.807-559.023-37.088-838.172-12.6v30.5
				c277.493-24.627,567.975-5.321,836.187,12.466c264.965,17.599,508.369,33.767,698.351,4.925
				c387-58.735,528.455-381.827,673.686-713.497c117.672-268.667,237.86-543.1,494.22-680.208
				c86.403-46.22,162.696-66.044,230.838-64.217l5.466,12.505c-63.078,5.099-132.505,26.62-209.532,67.403
				c-266.128,140.892-389.612,419.715-510.462,692.649c-143.207,323.335-282.677,638.261-653.328,692.955
				c-186.6,27.541-428.495,10.468-691.778-8.118c-277.553-19.584-578.872-40.865-866.635-13.616L0,1448.951v30.619l9.881-0.955
				c285.458-27.019,585.367-5.859,861.583,13.643c264.891,18.702,508.244,35.879,698.386,7.797
				c387.199-57.123,530.016-379.613,676.665-710.718c118.718-268.152,240.057-542.111,496.991-678.146
				c77.149-40.878,146.199-60.821,208.555-63.191l6.227,14.651c-57.197,7.636-119.553,28.375-187.91,64.22
				c-266.742,139.834-391.381,418.121-513.381,690.522c-144.521,322.738-285.276,637.076-656.16,690.234
				c-187.042,26.81-428.677,8.739-691.74-10.932c-277.54-20.764-578.85-43.269-866.552-17.237
				c-14.218,1.291-28.402,2.7-42.547,4.218v30.645c15.04-1.642,30.132-3.159,45.258-4.534
				c285.726-25.865,585.479-3.444,861.61,17.174c264.965,19.819,508.377,38.025,698.299,10.811
				c387.467-55.539,531.629-377.452,679.618-707.931c119.869-267.664,242.323-541.134,499.773-676.09
				c68.168-35.718,129.944-55.267,186.332-60.86l6.776,16.488c-51.125,9.375-106.325,28.951-166.143,59.986
				c-267.265,138.683-393.08,416.495-516.209,688.432c-145.866,322.097-287.935,635.872-659.026,687.466
				c-187.115,26.037-428.703,6.976-691.679-13.804c-277.345-21.88-578.456-45.66-866.539-20.777
				c-26.145,2.257-52.181,4.917-78.071,8.002v30.6c26.759-3.252,53.677-6.034,80.717-8.364
				c285.557-24.649,585.333-0.977,861.476,20.803c264.853,20.922,508.17,40.131,698.251,13.68
				c387.688-53.921,533.178-375.208,682.559-705.081c120.963-267.157,244.567-540.086,502.63-673.987
				c59.329-30.793,113.815-49.366,164.106-57.231l7.247,18.053c-44.877,10.37-92.829,28.341-144.253,54.753
				c-267.966,137.609-394.918,414.866-519.162,686.225c-147.202,321.508-290.569,634.685-661.894,684.731
				c-187.141,25.24-428.703,5.176-691.631-16.683c-277.198-23.044-578.149-48.049-866.405-24.39
				c-38.145,3.135-76.047,7.118-113.642,12.062v30.766c38.43-5.152,77.188-9.28,116.206-12.495
				c285.579-23.437,585.272,1.47,861.337,24.408c264.744,21.988,507.949,42.216,698.217,16.562
				c387.921-52.319,534.769-373.007,685.49-702.249c122.096-266.679,246.846-539.144,505.338-671.894
				c50.784-26.098,98.009-43.285,142.043-52.528l7.646,19.404c-38.525,10.615-79.268,26.662-122.455,48.627
				c-268.493,136.477-396.613,413.233-521.982,684.093c-148.543,320.907-293.254,633.492-664.765,682.034
				c-186.968,24.416-428.543,3.323-691.497-19.65c-277.073-24.184-577.903-50.443-866.301-27.948
				c-50.222,3.922-100.05,9.304-149.278,16.438v30.793c49.989-7.395,100.613-12.933,151.665-16.915
				c285.596-22.263,585.225,3.882,861.233,27.982c264.506,23.107,507.543,44.314,698.161,19.415
				c388.094-50.685,536.265-370.758,688.362-699.348c123.19-266.141,249.065-538.07,508.157-669.777
				c42.447-21.566,82.373-36.993,120.038-46.753l8.004,20.531c-32.03,10.188-65.564,23.965-100.734,41.677
				c-268.982,135.349-398.264,411.565-524.801,681.947c-149.866,320.294-295.84,632.291-667.558,679.276
				c-187.175,23.654-428.616,1.565-691.471-22.495c-277.064-25.361-577.843-52.868-866.12-31.587
				c-62.382,4.598-124.136,11.473-184.936,21.133v30.888c61.474-9.99,124.003-17.05,187.154-21.708
				c285.899-21.107,585.319,6.3,861.13,31.529c264.485,24.205,507.435,46.468,698.066,22.342
				c388.327-49.081,537.787-368.539,691.255-696.482c124.28-265.626,251.283-536.974,510.977-667.658
				c34.33-17.269,67.035-30.508,98.148-40.041l8.299,21.534c-25.414,9.034-51.766,20.323-79.078,33.942
				c-269.583,134.246-400.008,409.912-527.646,679.751c-151.198,319.671-298.5,631.005-670.378,676.457
				c-187.431,22.909-428.69-0.182-691.337-25.324c-277.06-26.515-577.843-55.281-866.033-35.23
				C145.979,1640.502,72.25,1648.948,0,1661.501v31.083c72.885-12.983,147.341-21.635,222.674-26.881
				c286.171-19.916,585.371,8.715,860.987,35.084c264.45,25.308,507.383,48.553,697.992,25.261
				c388.496-47.484,539.305-366.284,694.156-693.602c125.387-265.111,253.527-535.961,513.723-665.525
				c26.465-13.189,51.947-24.026,76.488-32.59l8.584,22.421c-18.681,7.35-37.876,15.86-57.612,25.57
				c-270.176,133.117-401.689,408.252-530.457,677.531c-152.534,319.033-301.112,629.778-673.179,673.673
				c-187.474,22.115-428.669-1.958-691.216-28.204c-276.831-27.644-577.376-57.672-865.938-38.782
				c-86.87,5.685-172.59,15.773-256.2,31.635V1729.358z"/>
		</defs>
		<clipPath id="SVGID_00000025436759664385790030000017594385353208289440_">
			<use xlink:href="#SVGID_00000092440765702159618740000011233008560831044516_"  style="overflow:visible;"/>
		</clipPath>
		
			<linearGradient id="SVGID_00000022545368686758717220000008526554458163865253_" gradientUnits="userSpaceOnUse" x1="1970.5322" y1="-232.6809" x2="2080.366" y2="4205.2964">
			<stop  offset="0" style="stop-color:#E6E6E6"/>
			<stop  offset="1" style="stop-color:#FFFFFF"/>
		</linearGradient>
		
			<rect style="clip-path:url(#SVGID_00000025436759664385790030000017594385353208289440_);fill:url(#SVGID_00000022545368686758717220000008526554458163865253_);" width="4000" height="1916.005"/>
	</g>
	<g>
		<defs>
			<path id="SVGID_00000155137205202936099640000012993798288026808461_" d="M4000,1224.3
				c-239.21,168.494-377.379,450.096-513.022,726.58c-187.016,381.205-369.167,752.488-806.354,788.259
				c-220.334,18.029-502.358-22.714-809.355-67.126c-323.849-46.808-675.45-97.631-1013.789-88.377
				c-307.032,8.422-602.971,66.009-857.48,219.771v45.694c253.528-160.431,550.557-219.879,859.05-228.338
				c335.947-9.193,685.686,41.334,1007.856,87.913c309.129,44.715,593.09,85.757,817.152,67.419
				c456.737-37.396,643.251-417.585,834.738-807.898c129.504-263.955,261.398-532.67,481.204-698.039V1224.3z M4000,1140.104
				c-267.637,164.625-413.504,464.987-556.537,759.564c-185.459,382.049-366.152,754.169-803.154,791.838
				c-220.088,18.987-502.345-20.605-809.61-63.668c-323.9-45.439-675.515-94.712-1014.001-83.962
				c-291.036,9.24-571.944,62.623-816.698,200.129v44.546c243.992-143.328,525.956-198.369,818.38-207.648
				c335.662-10.689,685.708,38.405,1008.163,83.598c309.15,43.359,593.189,83.181,817.307,63.864
				c456.543-39.371,641.522-420.391,831.43-811.559c137.214-282.676,277.138-570.795,524.719-732.88V1140.104z M4000,1059.533
				c-297.276,158.507-450.29,476.975-600.152,788.945c-183.941,382.846-363.087,755.729-799.928,795.308
				c-219.832,19.903-502.311-18.449-809.709-60.237c-323.961-43.966-675.662-91.722-1014.356-79.515
				C500.607,2513.963,234.613,2563.398,0,2686v43.628c234.098-127.68,501.16-178.584,777.745-188.561
				c335.373-12.085,685.672,35.472,1008.345,79.296c309.301,42.005,593.436,80.602,817.593,60.306
				c456.344-41.345,639.792-423.173,828.096-815.201c144.422-300.61,291.845-607.368,568.221-763.708V1059.533z M4000,982.383
				c-4.743,2.193-9.513,4.437-14.304,6.757c-318.249,153.463-475.513,484.312-629.448,808.125
				c-182.372,383.63-359.987,757.321-796.642,798.763c-220.113,20.874-502.544-16.203-809.982-56.642
				c-324.143-42.572-676.052-88.855-1014.537-75.165C475.453,2474.725,224.196,2520.263,0,2629.188v43.034
				c223.876-113.435,476.201-160.391,737.144-170.933c335.351-13.558,685.824,32.495,1008.605,74.917
				c309.561,40.696,593.95,78.071,817.705,56.856c456.197-43.335,638.088-426.01,824.862-818.906
				c151.098-317.803,305.462-642.539,611.684-790.843V982.383z M4000,908.129c-19.943,7.857-40.363,16.865-61.275,27.061
				c-317.452,154.77-473.446,486.352-626.067,810.923c-180.802,384.467-356.933,758.952-793.381,802.321
				c-220.066,21.84-502.583-14.06-810.142-53.15c-324.315-41.237-676.444-85.949-1014.805-70.837
				C450.143,2435.378,213.48,2477.324,0,2573.768v42.266c213.333-100.415,451.038-143.624,696.509-154.619
				c335.398-14.978,685.958,29.545,1008.876,70.568c309.743,39.386,594.266,75.519,817.84,53.335
				c455.95-45.293,636.311-428.762,821.489-822.496c149.974-318.861,303.196-644.622,609.725-794.055
				c15.468-7.554,30.655-14.403,45.561-20.558V908.129z M4000,837.02c-34.516,11.03-70.542,25.718-108.176,44.277
				c-316.899,156.208-471.505,488.432-622.828,813.644c-179.246,385.269-353.842,760.527-790.121,805.747
				c-220.027,22.822-502.605-11.866-810.263-49.595c-324.609-39.848-677.02-83.094-1014.943-66.498
				C424.708,2395.846,202.501,2434.375,0,2519.456v41.543c202.51-88.454,425.75-128.06,655.926-139.359
				c335.606-16.488,686.187,26.538,1009.092,66.178c309.963,38.035,594.625,72.967,817.987,49.804
				c455.794-47.257,634.585-431.558,818.181-826.085c148.698-319.537,300.584-646.01,606.439-796.768
				c32.009-15.786,62.771-28.547,92.375-38.442V837.02z M4000,769.467c-48.505,11.484-100.107,30.558-155.133,57.954
				c-316.177,157.562-469.459,490.504-619.46,816.389c-177.723,386.069-350.827,762.137-786.886,809.246
				c-219.474,23.719-502.406-9.76-810.411-46.201c-324.657-38.415-677.106-80.14-1015.125-62.074
				C399.138,2356.206,191.258,2391.423,0,2466.06v41.136c191.431-77.638,400.34-113.85,615.425-125.349
				c335.359-17.892,686.139,23.598,1009.256,61.868c309.804,36.647,594.44,70.348,818.142,46.162
				c455.475-49.215,632.757-434.289,814.748-829.641c147.375-320.197,297.989-647.332,603.218-799.449
				c49.24-24.54,95.562-41.838,139.211-52.562V769.467z M4000,705.714c-61.863,8.961-129.001,30.988-202.129,67.846
				c-315.516,158.895-467.427,492.552-616.16,819.136c-176.171,386.839-347.792,763.708-783.552,812.701
				c-219.452,24.675-502.445-7.588-810.522-42.733c-324.657-36.979-677.141-77.16-1015.294-57.624
				C373.435,2316.527,179.773,2348.608,0,2413.83v40.416c180.093-67.741,374.784-100.661,574.902-112.221
				c334.979-19.354,686.091,20.666,1009.452,57.513c309.972,35.364,594.707,67.783,818.229,42.68
				c455.301-51.211,631.005-437.061,811.4-833.206c146.1-320.846,295.351-648.631,599.996-802.073
				c67.195-33.847,128.976-54.183,186.021-62.555V705.714z M4000,646.451c-74.589,3.172-157.131,26.438-249.138,73.286
				c-314.901,160.331-465.464,494.613-612.865,821.823c-174.596,387.66-344.674,765.249-780.24,816.143
				c-219.452,25.615-502.518-5.392-810.605-39.188c-324.895-35.623-677.586-74.281-1015.458-53.283
				C347.593,2276.665,168.08,2305.716,0,2362.324v40.046c168.521-58.815,349.102-88.639,534.401-100.149
				c335.044-20.813,686.204,17.691,1009.672,53.161c310.097,33.968,595.04,65.249,818.328,39.151
				c454.995-53.174,629.18-439.818,807.958-836.724c144.837-321.556,292.787-650.048,596.744-804.76
				c86.001-43.781,163.137-65.318,232.896-67.867V646.451z M4000,592.12c-86.624-6.155-184.456,16.366-296.147,73.84
				c-314.24,161.719-463.466,496.685-609.527,824.534c-173.044,388.444-341.613,766.827-776.923,819.585
				c-219.158,26.565-502.372-3.249-810.679-35.718c-325.063-34.237-677.915-71.391-1015.665-48.933
				C321.643,2236.693,156.167,2262.854,0,2311.662v39.751c156.742-50.722,323.338-77.615,493.999-88.953
				c334.992-22.276,686.166,14.698,1009.638,48.759c310.205,32.667,595.174,62.676,818.496,35.573
				c454.801-55.135,627.416-442.513,804.586-840.269c143.518-322.145,290.167-651.289,593.462-807.33
				c105.624-54.352,197.999-74.917,279.819-67.867V592.12z M4000,543.272c-98.061-19.301-210.942,0.222-343.191,68.952
				c-313.665,163.115-461.507,498.707-606.218,827.212c-171.466,389.21-338.538,768.305-773.589,822.976
				c-219.132,27.528-502.41-1.108-810.752-32.202c-325.029-32.804-677.881-68.424-1015.753-44.496
				c-154.886,10.969-306.43,34.393-450.497,76.179v39.278c144.763-43.396,297.423-67.479,453.563-78.538
				c334.659-23.693,686.079,11.766,1009.781,44.449c310.343,31.318,595.455,60.087,818.587,32.078
				c454.566-57.123,625.574-445.3,801.165-843.8c142.217-322.855,287.529-652.674,590.124-810.017
				c126.195-65.624,233.623-82.761,326.78-61.95V543.272z M4000,402.311c-11.805-14.894-23.853-29.077-36.147-42.485
				c-14.611-19.088-29.616-37.056-44.998-53.837c-14.478-18.85-29.336-36.663-44.558-53.298
				C3715.645,45.94,3515.869-32.031,3231.989,129.883c-307.265,175.195-442.883,516.554-575.612,850.71
				c-157.252,395.853-310.413,781.468-742.977,853.043c-217.822,36.011-501.749,18.446-810.851-0.702
				c-325.885-20.151-679.679-42.079-1015.934-5.073c-29.016,3.196-57.893,6.825-86.615,10.945v37.571
				c30.145-4.389,60.471-8.24,90.952-11.6c333.656-36.734,685.772-14.925,1010.113,5.152
				c311.018,19.28,596.731,36.966,818.575,0.245c451.881-74.761,608.705-469.558,769.688-874.836
				c130.433-328.323,263.664-663.723,560.313-832.887c151.959-86.662,278.288-98.996,386.563-56.89
				c-102.437-21.365-219.793,0.43-356.86,77.789c-308.013,173.936-444.992,514.654-579.045,848.187
				c-158.847,395.09-313.578,779.971-746.511,849.67c-218.076,35.116-501.904,16.314-810.851-4.144
				c-325.686-21.574-679.299-45.011-1016.034-9.415c-42.62,4.511-84.946,9.955-126.904,16.464v37.616
				c43.347-6.875,87.091-12.561,131.159-17.219c333.496-35.29,685.686-11.917,1010.087,9.549
				c311.092,20.616,596.844,39.526,818.696,3.795c452.127-72.821,610.534-466.908,773.209-871.484
				c131.721-327.761,266.31-662.559,563.599-830.414c151.911-85.767,278.041-97.758,385.923-55.626
				c-102.109-21.402-219.18,0.013-356.064,76.551c-308.774,172.551-447.09,512.653-582.5,845.527
				c-160.417,394.451-316.691,778.636-749.87,846.456c-218.185,34.163-501.965,14.134-810.886-7.662
				c-325.786-23.004-679.472-47.964-1016.133-13.851c-56.298,5.714-112.106,13.07-167.219,22.337v37.777
				c56.436-9.721,113.629-17.346,171.367-23.205c333.937-33.828,685.867-8.995,1010.074,13.904
				c310.979,21.962,596.671,42.092,818.743,7.343c452.508-70.876,612.51-464.201,776.763-868.056
				c133.084-327.149,269.035-661.379,566.993-827.928c151.605-84.725,277.393-96.467,384.833-54.473
				c-101.689-21.315-218.397-0.245-354.935,75.337c-309.436,171.189-449.175,510.703-585.907,843.035
				c-162.026,393.673-319.844,777.158-753.266,843.075c-218.263,33.208-502.064,11.967-810.998-11.177
				c-325.639-24.406-679.165-50.891-1016.046-18.201c-70.087,6.802-139.431,16.142-207.621,28.571v37.877
				c69.431-12.97,140.106-22.624,211.569-29.552c334.002-32.384,685.971-6.02,1010.213,18.277
				c310.794,23.279,596.338,44.655,818.635,10.861c452.863-68.905,614.443-461.577,780.326-864.688
				c134.368-326.507,271.668-660.091,570.34-825.349c151.384-83.745,276.757-95.155,383.792-53.285
				c-101.248-21.254-217.61-0.541-353.846,74.075c-310.132,169.866-451.233,508.731-589.289,840.414
				c-163.604,392.987-322.97,775.756-756.707,839.815c-218.522,32.25-502.19,9.795-810.964-14.672
				c-325.505-25.802-678.896-53.789-1016.02-22.59c-83.964,7.783-166.878,19.217-248.049,35.238v37.964
				c82.313-16.657,166.497-28.428,251.789-36.333c334.084-30.914,686.028-3.027,1010.187,22.677
				c310.867,24.625,596.424,47.268,818.717,14.429c453.157-66.931,616.346-458.869,783.872-861.268
				c135.669-325.919,274.305-658.866,573.587-822.823c151.31-82.875,276.498-93.883,383.143-51.96
				c-100.92-21.331-217-0.995-353.037,72.726c-310.854,168.541-453.291,506.767-592.709,837.825
				c-165.174,392.213-326.093,774.249-760.055,836.445c-218.656,31.342-502.237,7.623-810.95-18.193
				c-325.552-27.212-678.944-56.724-1016.068-27c-97.94,8.638-194.458,22.257-288.476,42.327v38.265
				c95.121-20.875,192.888-34.884,292.152-43.636c334.344-29.505,686.079-0.1,1010.066,26.966
				c310.72,26,596.19,49.854,818.696,17.958c453.485-64.988,618.218-456.169,787.349-857.807
				c137.005-325.322,276.991-657.668,576.973-820.289c151.25-82.014,276.243-92.669,382.554-50.672
				c-100.625-21.413-216.451-1.462-352.349,71.436c-311.52,167.159-455.328,504.762-596.095,835.217
				c-166.731,391.443-329.146,772.708-763.509,833.027c-218.903,30.413-502.337,5.479-810.877-21.648
				c-325.418-28.597-678.689-59.657-1015.986-31.368c-112.02,9.388-222.22,25.287-328.973,49.915v38.5
				c107.761-25.604,219.158-41.968,332.467-51.469c334.391-28.045,686.044,2.895,1009.993,31.344
				c310.759,27.346,596.242,52.414,818.73,21.534c453.697-63.019,620.021-453.511,790.787-854.4
				c138.303-324.684,279.585-656.367,580.282-817.713c151.003-81.003,275.676-91.381,381.534-49.535
				c-100.232-21.339-215.685-1.75-351.208,70.248c-312.242,165.799-457.412,502.75-599.477,832.544
				c-168.339,390.719-332.298,771.312-766.835,829.717c-218.945,29.444-502.444,3.289-810.972-25.179
				c-325.236-29.993-678.343-62.563-1015.826-35.739C243.27,2116.173,119.354,2134.488,0,2164.251v38.647
				c120.236-30.89,245.303-49.677,372.747-59.817c334.491-26.562,686.127,5.859,1010.061,35.731
				c310.552,28.66,595.841,54.964,818.601,25.005c454.026-61.018,621.946-450.777,794.315-850.845
				c139.613-324.047,282.258-655.116,583.564-815.153c150.735-80.032,275.04-90.083,380.444-48.371
				c-99.778-21.278-214.877-2.006-350.045,69.037c-312.83,164.366-459.384,500.721-602.81,829.899
				c-169.905,389.957-335.421,769.81-770.217,826.357c-219.046,28.497-502.406,1.116-810.899-28.682
				c-325.172-31.421-678.174-65.521-1015.825-40.147c-140.487,10.568-278.163,31.368-409.936,66.83v38.906
				c132.595-36.787,271.447-58.139,413.197-68.791c334.602-25.153,686.131,8.773,1009.88,40.081
				c310.465,29.972,595.628,57.553,818.548,28.549c454.311-59.047,623.788-448.045,797.783-847.364
				c140.906-323.398,284.848-653.82,586.902-812.532c147.717-77.625,269.917-88.428,373.69-49.397V402.311z M0,2911.044
				c262.699-178.991,575.011-242.989,899.771-250.5c335.675-7.762,685.413,44.348,1007.523,92.334
				c308.947,46.03,592.749,88.293,816.931,70.903c456.906-35.391,644.977-414.753,838.025-804.219
				c121.218-244.446,244.447-492.969,437.75-658.89v-47.93c-211.898,169.93-341.794,431.901-469.459,689.411
				c-188.538,380.357-372.181,750.812-809.563,784.719c-220.36,17.063-502.284-24.894-809.121-70.634
				c-323.546-48.194-674.814-100.513-1013.56-92.703c-323.213,7.464-634.374,69.38-898.296,240.806V2911.044z"/>
		</defs>
		<clipPath id="SVGID_00000107580236192561054510000013866198780925806477_">
			<use xlink:href="#SVGID_00000155137205202936099640000012993798288026808461_"  style="overflow:visible;"/>
		</clipPath>
		
			<linearGradient id="SVGID_00000166650902492377391920000010593353317873913275_" gradientUnits="userSpaceOnUse" x1="1336.1783" y1="-1730.7859" x2="2479.9429" y2="3731.6272">
			<stop  offset="0" style="stop-color:#E6E6E6"/>
			<stop  offset="1" style="stop-color:#FFFFFF"/>
		</linearGradient>
		
			<rect y="-32.031" style="clip-path:url(#SVGID_00000107580236192561054510000013866198780925806477_);fill:url(#SVGID_00000166650902492377391920000010593353317873913275_);" width="4000" height="2943.074"/>
	</g>
</g>
</svg>
