<?xml version="1.0" encoding="utf-8"?>
<!-- Generator: Adobe Illustrator 26.5.0, SVG Export Plug-In . SVG Version: 6.00 Build 0)  -->
<svg version="1.1" id="Layer_1" xmlns="http://www.w3.org/2000/svg" xmlns:xlink="http://www.w3.org/1999/xlink" x="0px" y="0px"
	 viewBox="0 0 493.05 397.21" style="enable-background:new 0 0 493.05 397.21;" xml:space="preserve">
<style type="text/css">
	.st0{fill:#30997D;}
	.st1{fill:#BA4820;}
	.st2{fill:#1D1D1E;}
</style>
<g>
	<polygon class="st0" points="170.04,75.47 224.32,70.77 224.32,140.63 182.17,134.37 197.18,102.36 	"/>
	<polygon class="st1" points="138.28,223.21 104.22,265.36 138.28,271.21 	"/>
	<g>
		<g>
			<path class="st2" d="M194.11,144.86c7.04-12.37,13.59-25.02,19.64-37.9c0.32-0.69,0.65-1.42,0.6-2.18
				c-0.05-0.69-0.41-1.31-0.77-1.9c-4.87-8.13-10.04-16.07-15.5-23.8c-0.89-1.26-1.84-2.56-3.22-3.26
				c-4.91-2.47-8.28,9.58-6.62,12.86c1.95,3.87,8.17,7.64,11.16,10.95c2.59,2.86,5.18,6.29,4.85,10.14
				c-0.16,1.81-0.96,3.49-1.76,5.11c-3.85,7.81-7.99,15.48-12.41,22.98c-1.96,3.33-13.28,17.01-9.25,19.63
				c1.28,0.83,2.91,0.88,4.44,0.89c18.26,0.2,36.64,1.02,54.88,0.1c-0.83-15.72-1.66-31.43-2.49-47.15
				c-0.41-7.71-0.81-15.42-1.22-23.13c-0.33-6.32,1.56-15.41-7.51-12c0.55,16.91,1.09,33.82,1.64,50.73
				c0.13,4.15,0.26,8.31,0.4,12.46c0.17,5.21,1.04,6.19-4.4,6.3c-8.54,0.17-17.09,0.24-25.63,0.35c-2.3,0.03-4.67,0.05-6.82-0.79"/>
		</g>
		<g>
			<path class="st2" d="M190.56,76.34c-14.84,15.01-25.61,33.98-30.68,54.49c-2.75,11.12-4.12,23.3-0.23,34.33
				c3.12,8.85,9.12,16.49,16.89,21.73c10.84,7.31,23.89,7.77,36.54,7.76c3.78,0,3.78-5.87,0-5.87c-10.34,0.01-21.21,0.02-30.53-5.1
				c-7.47-4.1-13.55-10.82-16.74-18.75c-3.97-9.87-2.99-20.85-0.64-30.99c2.18-9.4,5.57-18.5,10.09-27.02
				c5.17-9.73,11.71-18.61,19.45-26.44C197.37,77.8,193.22,73.65,190.56,76.34L190.56,76.34z"/>
		</g>
		<g>
			<path class="st2" d="M247.27,87.29c0,37.42,0,74.84,0,112.25c0,3.78,5.87,3.78,5.87,0c0-37.42,0-74.84,0-112.25
				C253.14,83.51,247.27,83.5,247.27,87.29L247.27,87.29z"/>
		</g>
		<g>
			<path class="st2" d="M235.33,90.69c39.34-0.71,78.69-1.46,118.04-0.84c10.17,0.16,24.62,0.16,29.86,0.26
				c0.8,0.02,1.47,0.63,1.56,1.43c2.71,25.5,1.65,49.07,4.29,74.66c0.38,3.72,6.26,3.76,5.87,0c-2.69-26.06-1.79-52.34-4.69-78.38
				c-0.18-1.63-1.2-2.87-2.93-2.93c-39.34-1.5-78.72-1.27-118.08-0.65c-11.3,0.18-22.6,0.38-33.9,0.59
				C231.56,84.89,231.54,90.76,235.33,90.69L235.33,90.69z"/>
		</g>
		<path class="st2" d="M332.8,118.72c0.1-1.66-1.27-3.32-2.84-3.73c-8.77-2.29-17.55-5.31-24.85-10.84
			c-3.18-2.4-6.06-5.34-8.31-8.63c-2.23-3.27-3.67-6.97-5.35-10.53c-1.04,0.06-2.08,0.12-3.12,0.2c-0.04,0-0.23,0.01-0.44,0.02
			c-0.08,0.02-0.16,0.04-0.28,0.06c-0.92,0.2-1.82,0.24-2.67,0.13c-1.34,1.19-1.78,2.93-2.38,4.68c-0.72,2.11-1.37,4.21-1.94,6.37
			c-1.08,4.14-2.27,8.26-3.35,12.4c-1.08,4.15-2.26,8.26-3.34,12.41c-0.56,2.15-1.13,4.3-1.65,6.46c-0.27,1.12-0.61,2.22-0.81,3.32
			c0.11,0.02,0.22,0.04,0.33,0.06c0.75,0.01,1.49,0.04,2.25,0.09c3.86-0.28,7.87,0.1,11.57,0.84c1.06,0.07,2.12,0.15,3.13,0.31
			c3.32,0.52,6.61,1.33,9.76,2.51c4.42,1.65,13.36,7.2,7.2,12.3c-2.23,1.85-5.26,2.49-8.03,3.02c-3.73,0.72-7.51,1.16-11.29,1.4
			c-6.67,0.41-13.12-0.23-19.68-1.09c0.19,4.12-0.06,8.24-0.09,12.36c8.26,0.63,16.69-0.1,24.8-1.44
			c8.09-1.33,18.77-3.29,22.63-11.55c1.89-4.03,1.82-8.53-1.08-12.05c-2.45-2.98-5.81-4.58-9.31-6.01
			c-4.19-1.71-8.33-3.12-12.82-3.86c-2.36-0.39-5.07-0.89-7.71-0.99c1.3-4.15,2.41-8.35,3.49-12.56c1.22-4.77,2.24-9.58,3.21-14.41
			c0.2-1.02,0.39-2.04,0.56-3.06c2.55,4.67,6.4,8.84,10.09,11.94c6.94,5.81,15.19,9.57,23.71,12.41
			c-2.51,9.29-3.96,18.98-4.83,28.55c-0.72,7.91-0.81,16.04,0.32,23.97c4-0.18,8-0.19,12-0.08c-1.65-8.02-2.17-16.06-1.82-24.35
			C330.27,139.08,332.18,128.94,332.8,118.72z"/>
		<path class="st2" d="M393.9,165.11c-2.01-4.19-4.84-7.82-7.6-11.55c-2.51-3.39-5.07-6.74-7.67-10.06
			c-2.66-3.4-5.33-6.78-8.02-10.15c-1.4-1.75-2.79-3.49-4.04-5.35c-1.16-1.72-1.78-3.6-2.73-5.35c-0.79-1.46-2.52-2.42-4.17-2.39
			c-5.87,0.12-6.66,6.17-7.39,10.76c-0.78,4.9-1.09,9.92-1.62,14.86c-0.49,4.69-1,9.39-1.3,14.1c-0.15,2.27-0.31,5.01,0.07,7.57
			c3.66-0.21,7.32-0.22,10.99-0.12c0.2-2.22,0.14-4.53,0.35-6.54c0.42-3.9,0.99-7.78,1.4-11.68c0.42-3.95,0.83-7.91,1.25-11.86
			c0.15-1.42,0.32-2.84,0.43-4.27c1.36,1.46,2.61,3.05,3.83,4.51c2.73,3.27,5.37,6.6,7.94,9.99c5,6.61,9.34,14.02,15.02,20.05
			C392.34,169.43,394.88,167.14,393.9,165.11z"/>
		<g>
			<rect x="193.37" y="75.52" class="st2" width="38.27" height="5.87"/>
		</g>
	</g>
	<g>
		<path class="st2" d="M151.97,214.23c0-1.99-1.63-2.93-3.16-2.82c-0.25-0.07-0.53-0.11-0.83-0.11H99.02v-18.49
			c0.28-7.41,1.54-15.03,7.21-20.21c3.26-2.97,7.45-4.68,11.68-5.76c4.84-1.24,9.85-1.72,14.82-2.06
			c6.35-0.43,12.72-0.44,19.07-0.05c-0.18-4.39-0.24-8.78-0.26-13.18c-12.02-2-24.58-1.57-36.36,1.64
			c-2.78,0.76-5.52,1.77-7.96,3.31c-2.08,1.31-3.95,2.95-5.56,4.8c-3.37,3.89-5.65,8.62-6.93,13.59c-0.9,3.48-1.34,7.04-1.5,10.63
			c-0.04,0.2-0.06,0.41-0.06,0.64v1.37c-0.02,0.93-0.01,1.86,0,2.79v129.12c0,3.78,5.87,3.78,5.87,0V217.17h47.08v4.31
			c-0.31,4.2-4.38,7.76-4.38,7.76c-0.83,0.91-1.66,1.82-2.49,2.73c-2.92,3.24-5.67,6.63-8.41,10.02c-2.94,3.63-5.82,7.31-8.7,10.99
			c-2.69,3.43-5.62,6.83-7.94,10.52c-0.21,0.33-0.41,0.68-0.6,1.03c-1.04,1.3-2.07,2.61-3.08,3.94c-2.07,2.74-3.85,6.34-2.61,9.82
			c1.2,3.37,4.88,4.92,7.95,6.19c2.25,0.93,4.58,1.64,6.94,2.24c2.69,1.04,5.46,1.87,8.26,2.58c3.74,0.96,7.7,1.55,11.19,3.27
			c1.47,0.73,2.83,1.67,3.88,2.92v1.12c0,3.78,5.87,3.78,5.87,0v-12.07c0.14-0.49,0.23-0.98,0.23-1.46c0-0.57-0.08-1.11-0.23-1.6
			V214.23z M145.54,266.81l-0.15,10.24c0,0.08,0,0.16-0.01,0.24c-7.05-0.8-14.22-1.87-21.12-3.44c-1.59-0.36-4.58-0.94-4.6-3.02
			c-0.03-2.97,3.4-6.54,5-8.81c4.49-6.39,9.17-12.63,13.99-18.77c2.3-2.92,4.58-5.85,6.85-8.79c0.06-0.08,0.12-0.15,0.18-0.23
			c0,3.71,0.02,7.41,0.02,11.12C145.71,252.5,145.64,259.65,145.54,266.81z"/>
		<g>
			<g>
				<path class="st2" d="M194.11,272.67c7.04-12.37,13.59-25.02,19.64-37.9c0.32-0.69,0.65-1.42,0.6-2.18
					c-0.05-0.69-0.41-1.31-0.77-1.9c-4.87-8.13-10.04-16.07-15.5-23.8c-0.89-1.26-1.84-2.56-3.22-3.26
					c-4.91-2.47-8.28,9.58-6.62,12.86c1.95,3.87,8.17,7.64,11.16,10.95c2.59,2.86,5.18,6.29,4.85,10.14
					c-0.16,1.81-0.96,3.49-1.76,5.11c-3.85,7.81-7.99,15.48-12.41,22.98c-1.96,3.33-13.28,17.01-9.25,19.63
					c1.28,0.83,2.91,0.88,4.44,0.89c18.26,0.2,36.64,1.02,54.88,0.1c-0.83-15.72-1.66-31.43-2.49-47.15
					c-0.41-7.71-0.81-15.42-1.22-23.13c-0.33-6.32,1.56-15.41-7.51-12c0.55,16.91,1.09,33.82,1.64,50.73
					c0.13,4.15,0.26,8.31,0.4,12.46c0.17,5.21,1.04,6.19-4.4,6.3c-8.54,0.17-17.09,0.24-25.63,0.35c-2.3,0.03-4.67,0.05-6.82-0.79"
					/>
			</g>
			<g>
				<path class="st2" d="M190.56,204.14c-14.84,15.01-25.61,33.98-30.68,54.49c-2.75,11.12-4.12,23.3-0.23,34.33
					c3.12,8.85,9.12,16.49,16.89,21.73c10.84,7.31,23.89,7.77,36.54,7.76c3.78,0,3.78-5.87,0-5.87c-10.34,0.01-21.21,0.02-30.53-5.1
					c-7.47-4.1-13.55-10.82-16.74-18.75c-3.97-9.87-2.99-20.85-0.64-30.99c2.18-9.4,5.57-18.5,10.09-27.02
					c5.17-9.73,11.71-18.61,19.45-26.44C197.37,205.6,193.22,201.45,190.56,204.14L190.56,204.14z"/>
			</g>
			<g>
				<path class="st2" d="M247.27,215.09c0,37.42,0,74.84,0,112.25c0,3.78,5.87,3.78,5.87,0c0-37.42,0-74.84,0-112.25
					C253.14,211.31,247.27,211.31,247.27,215.09L247.27,215.09z"/>
			</g>
			<g>
				<path class="st2" d="M235.33,218.49c39.34-0.71,78.69-1.46,118.04-0.84c10.17,0.16,24.62,0.16,29.86,0.26
					c0.8,0.02,1.47,0.63,1.56,1.43c2.71,25.5,1.65,49.07,4.29,74.66c0.38,3.72,6.26,3.76,5.87,0c-2.69-26.06-1.79-52.34-4.69-78.38
					c-0.18-1.63-1.2-2.87-2.93-2.93c-39.34-1.5-78.72-1.27-118.08-0.65c-11.3,0.18-22.6,0.38-33.9,0.59
					C231.56,212.69,231.54,218.56,235.33,218.49L235.33,218.49z"/>
			</g>
			<path class="st2" d="M332.8,246.52c0.1-1.66-1.27-3.32-2.84-3.73c-8.77-2.29-17.55-5.31-24.85-10.84
				c-3.18-2.4-6.06-5.34-8.31-8.63c-2.23-3.27-3.67-6.97-5.35-10.53c-1.04,0.06-2.08,0.12-3.12,0.2c-0.04,0-0.23,0.01-0.44,0.02
				c-0.08,0.02-0.16,0.04-0.28,0.06c-0.92,0.2-1.82,0.24-2.67,0.13c-1.34,1.19-1.78,2.93-2.38,4.68c-0.72,2.11-1.37,4.21-1.94,6.37
				c-1.08,4.14-2.27,8.26-3.35,12.4c-1.08,4.15-2.26,8.26-3.34,12.41c-0.56,2.15-1.13,4.3-1.65,6.46c-0.27,1.12-0.61,2.22-0.81,3.32
				c0.11,0.02,0.22,0.04,0.33,0.06c0.75,0.01,1.49,0.04,2.25,0.09c3.86-0.28,7.87,0.1,11.57,0.84c1.06,0.07,2.12,0.15,3.13,0.31
				c3.32,0.52,6.61,1.33,9.76,2.51c4.42,1.65,13.36,7.2,7.2,12.3c-2.23,1.85-5.26,2.49-8.03,3.02c-3.73,0.72-7.51,1.16-11.29,1.4
				c-6.67,0.41-13.12-0.23-19.68-1.09c0.19,4.12-0.06,8.24-0.09,12.36c8.26,0.63,16.69-0.1,24.8-1.44
				c8.09-1.33,18.77-3.29,22.63-11.55c1.89-4.03,1.82-8.53-1.08-12.05c-2.45-2.98-5.81-4.58-9.31-6.01
				c-4.19-1.71-8.33-3.12-12.82-3.86c-2.36-0.39-5.07-0.89-7.71-0.99c1.3-4.15,2.41-8.35,3.49-12.56c1.22-4.77,2.24-9.58,3.21-14.41
				c0.2-1.02,0.39-2.04,0.56-3.06c2.55,4.67,6.4,8.84,10.09,11.94c6.94,5.81,15.19,9.57,23.71,12.41
				c-2.51,9.29-3.96,18.98-4.83,28.55c-0.72,7.91-0.81,16.04,0.32,23.97c4-0.18,8-0.19,12-0.08c-1.65-8.02-2.17-16.06-1.82-24.35
				C330.27,266.88,332.18,256.74,332.8,246.52z"/>
			<path class="st2" d="M393.9,292.91c-2.01-4.19-4.84-7.82-7.6-11.55c-2.51-3.39-5.07-6.74-7.67-10.06
				c-2.66-3.4-5.33-6.78-8.02-10.15c-1.4-1.75-2.79-3.49-4.04-5.35c-1.16-1.72-1.78-3.6-2.73-5.35c-0.79-1.46-2.52-2.42-4.17-2.39
				c-5.87,0.12-6.66,6.17-7.39,10.76c-0.78,4.9-1.09,9.92-1.62,14.86c-0.49,4.69-1,9.39-1.3,14.1c-0.15,2.27-0.31,5.01,0.07,7.57
				c3.66-0.21,7.32-0.22,10.99-0.12c0.2-2.22,0.14-4.53,0.35-6.54c0.42-3.9,0.99-7.78,1.4-11.68c0.42-3.95,0.83-7.91,1.25-11.86
				c0.15-1.42,0.32-2.84,0.43-4.27c1.36,1.46,2.61,3.05,3.83,4.51c2.73,3.27,5.37,6.6,7.94,9.99c5,6.61,9.34,14.02,15.02,20.05
				C392.34,297.23,394.88,294.94,393.9,292.91z"/>
			<g>
				<rect x="193.37" y="203.32" class="st2" width="38.27" height="5.87"/>
			</g>
		</g>
		<path class="st2" d="M223.01,294.14c-2.75-0.67-5.89-0.15-8.04,1.46c-0.12,0.09-0.24,0.19-0.35,0.28
			c-5.29,2.91-6.57,9.59-1.84,13.46c5.17,4.23,13.34,1.81,16.03-3.28C231.15,301.66,228.96,295.59,223.01,294.14z"/>
	</g>
</g>
</svg>
